<svg xmlns="http://www.w3.org/2000/svg" width="812" height="1394" viewBox="0 0 812 1394" role="img" aria-label="noetrail - one agent turn against the synthetic demo vault" font-family="ui-monospace, SFMono-Regular, Menlo, Consolas, DejaVu Sans Mono, monospace" font-size="13" xml:space="preserve">
<title>noetrail - one agent turn against the synthetic demo vault</title>
<desc>A recorded terminal session; every line below a prompt is the real output of the command above it.</desc>
<rect width="812" height="1394" rx="8" fill="#15181e"/>
<path d="M0 8a8 8 0 0 1 8-8h796a8 8 0 0 1 8 8v22H0Z" fill="#20242c"/>
<text x="16" y="20" fill="#7d8794" font-size="11">noetrail - one agent turn against the synthetic demo vault</text>
<text x="16" y="59" fill="#8fbf7f">$ <tspan fill="#e8ebf0">export NOETRAIL_DATA_ROOT=data NOETRAIL_CONFIG_ROOT=config</tspan></text>
<text x="16" y="95" fill="#8fbf7f">$ <tspan fill="#e8ebf0">noetrail search harbor</tspan></text>
<text x="16" y="113" fill="#aeb6c2">{</text>
<text x="16" y="131" fill="#aeb6c2">  "scope": "active",</text>
<text x="16" y="149" fill="#aeb6c2">  "query": "harbor",</text>
<text x="16" y="167" fill="#aeb6c2">  "sort": "relevance",</text>
<text x="16" y="185" fill="#aeb6c2">  "total": 1,</text>
<text x="16" y="203" fill="#aeb6c2">  "offset": 0,</text>
<text x="16" y="221" fill="#aeb6c2">  "limit": 20,</text>
<text x="16" y="239" fill="#aeb6c2">  "returned": 1,</text>
<text x="16" y="257" fill="#aeb6c2">  "has_more": false,</text>
<text x="16" y="275" fill="#aeb6c2">  "next_offset": null,</text>
<text x="16" y="293" fill="#aeb6c2">  "complete": true,</text>
<text x="16" y="311" fill="#aeb6c2">  "unreadable_entry_count": 0,</text>
<text x="16" y="329" fill="#aeb6c2">  "items": [</text>
<text x="16" y="347" fill="#aeb6c2">    {</text>
<text x="16" y="365" fill="#aeb6c2">      "id": "kn_22222222222222222222222222222222",</text>
<text x="16" y="383" fill="#aeb6c2">      "type": "travel/destination",</text>
<text x="16" y="401" fill="#aeb6c2">      "title": "Azure Harbor",</text>
<text x="16" y="419" fill="#aeb6c2">      "status": "active",</text>
<text x="16" y="437" fill="#aeb6c2">      "updated_at": "2026-01-01T10:05:00+00:00",</text>
<text x="16" y="455" fill="#aeb6c2">      "sensitivity": "normal",</text>
<text x="16" y="473" fill="#aeb6c2">      "relation_count": 0,</text>
<text x="16" y="491" fill="#aeb6c2">      "attachment_count": 0,</text>
<text x="16" y="509" fill="#aeb6c2">      "type_version": 1,</text>
<text x="16" y="527" fill="#aeb6c2">      "attributes": {</text>
<text x="16" y="545" fill="#aeb6c2">        "country": "Exampleland",</text>
<text x="16" y="563" fill="#aeb6c2">        "highlights": [</text>
<text x="16" y="581" fill="#aeb6c2">          "glass lighthouse",</text>
<text x="16" y="599" fill="#aeb6c2">          "night market"</text>
<text x="16" y="617" fill="#aeb6c2">        ],</text>
<text x="16" y="635" fill="#aeb6c2">        "visit_state": "wishlist"</text>
<text x="16" y="653" fill="#aeb6c2">      },</text>
<text x="16" y="671" fill="#aeb6c2">      "revision": "sha256:77aacb58ff93616b18da00cb79dcf7b1953bdcf58296b52e326f96f4021a6b6d"</text>
<text x="16" y="689" fill="#aeb6c2">    }</text>
<text x="16" y="707" fill="#aeb6c2">  ]</text>
<text x="16" y="725" fill="#aeb6c2">}</text>
<text x="16" y="761" fill="#8fbf7f">$ <tspan fill="#e8ebf0">noetrail capture --type thought --title 'Markdown beats a database here' --text 'The vault stays r</tspan></text>
<text x="16" y="779" fill="#e8ebf0">eadable without the program.' --tag design</text>
<text x="16" y="797" fill="#aeb6c2">{"created": "vault/inbox/2026-08-19--markdown-beats-a-database-here--c394c7ff.md", "id": "kn_c394c7f</text>
<text x="16" y="815" fill="#aeb6c2">f97d84d66bd9b837455e8fc20", "title": "Markdown beats a database here", "type": "thought", "revision"</text>
<text x="16" y="833" fill="#aeb6c2">: "sha256:70c4e4a56f801bea7eaa73d1cc4608fc0bf515d7e0528e8c1c02da28564efb05"}</text>
<text x="16" y="869" fill="#8fbf7f">$ <tspan fill="#e8ebf0">noetrail review</tspan></text>
<text x="16" y="887" fill="#aeb6c2">{</text>
<text x="16" y="905" fill="#aeb6c2">  "count": 1,</text>
<text x="16" y="923" fill="#aeb6c2">  "displayed": 1,</text>
<text x="16" y="941" fill="#aeb6c2">  "complete": true,</text>
<text x="16" y="959" fill="#aeb6c2">  "skipped_legacy": [],</text>
<text x="16" y="977" fill="#aeb6c2">  "items": [</text>
<text x="16" y="995" fill="#aeb6c2">    {</text>
<text x="16" y="1013" fill="#aeb6c2">      "id": "kn_c394c7ff97d84d66bd9b837455e8fc20",</text>
<text x="16" y="1031" fill="#aeb6c2">      "type": "thought",</text>
<text x="16" y="1049" fill="#aeb6c2">      "title": "Markdown beats a database here",</text>
<text x="16" y="1067" fill="#aeb6c2">      "path": "vault/inbox/2026-08-19--markdown-beats-a-database-here--c394c7ff.md",</text>
<text x="16" y="1085" fill="#aeb6c2">      "created_at": "2026-08-19T16:54:53.375883+02:00",</text>
<text x="16" y="1103" fill="#aeb6c2">      "updated_at": "2026-08-19T16:54:53.375883+02:00",</text>
<text x="16" y="1121" fill="#aeb6c2">      "revision": "sha256:70c4e4a56f801bea7eaa73d1cc4608fc0bf515d7e0528e8c1c02da28564efb05",</text>
<text x="16" y="1139" fill="#aeb6c2">      "sensitivity": "personal",</text>
<text x="16" y="1157" fill="#aeb6c2">      "reasons": [</text>
<text x="16" y="1175" fill="#aeb6c2">        "unreviewed"</text>
<text x="16" y="1193" fill="#aeb6c2">      ],</text>
<text x="16" y="1211" fill="#aeb6c2">      "unresolved_relations": [],</text>
<text x="16" y="1229" fill="#aeb6c2">      "attachment_count": 0,</text>
<text x="16" y="1247" fill="#aeb6c2">      "type_version": 1,</text>
<text x="16" y="1265" fill="#aeb6c2">      "attributes": {}</text>
<text x="16" y="1283" fill="#aeb6c2">    }</text>
<text x="16" y="1301" fill="#aeb6c2">  ]</text>
<text x="16" y="1319" fill="#aeb6c2">}</text>
<text x="16" y="1355" fill="#8fbf7f">$ <tspan fill="#e8ebf0">noetrail validate</tspan></text>
<text x="16" y="1373" fill="#aeb6c2">Validation passed for 3 active and 0 trashed entries with 0 warning(s).</text>
</svg>
